<svg width="20" height="10" viewBox="0 0 20 10" fill="none" xmlns="http://www.w3.org/2000/svg">
<path d="M9.90027 0.9C10.4307 0.9 10.9394 1.11071 11.3145 1.48579C11.6896 1.86086 11.9003 2.36957 11.9003 2.9V6.9C11.9003 7.43043 11.6896 7.93914 11.3145 8.31421C10.9394 8.68929 10.4307 8.9 9.90027 8.9C9.36984 8.9 8.86113 8.68929 8.48606 8.31421C8.11098 7.93914 7.90027 7.43043 7.90027 6.9V2.9C7.90027 2.36957 8.11098 1.86086 8.48606 1.48579C8.86113 1.11071 9.36984 0.9 9.90027 0.9Z" stroke="#F8D3D3" stroke-width="1.8" stroke-linecap="round" stroke-linejoin="round"/>
<path d="M14.9 7.9C15.245 8.5 16.158 8.9 16.9 8.9C17.4305 8.9 17.9392 8.68929 18.3142 8.31421C18.6893 7.93914 18.9 7.43043 18.9 6.9C18.9 6.36957 18.6893 5.86086 18.3142 5.48579C17.9392 5.11071 17.4305 4.9 16.9 4.9C16.3696 4.9 15.8609 4.68929 15.4858 4.31421C15.1107 3.93914 14.9 3.43043 14.9 2.9C14.9 2.36957 15.1107 1.86086 15.4858 1.48579C15.8609 1.11071 16.3696 0.9 16.9 0.9C17.646 0.9 18.556 1.294 18.9 1.9" stroke="#F8D3D3" stroke-width="1.8" stroke-linecap="round" stroke-linejoin="round"/>
<path d="M0.900146 7.9C1.24515 8.5 2.15815 8.9 2.90015 8.9C3.43058 8.9 3.93929 8.68929 4.31436 8.31421C4.68943 7.93914 4.90015 7.43043 4.90015 6.9C4.90015 6.36957 4.68943 5.86086 4.31436 5.48579C3.93929 5.11071 3.43058 4.9 2.90015 4.9C2.36971 4.9 1.86101 4.68929 1.48593 4.31421C1.11086 3.93914 0.900146 3.43043 0.900146 2.9C0.900146 2.36957 1.11086 1.86086 1.48593 1.48579C1.86101 1.11071 2.36971 0.9 2.90015 0.9C3.64615 0.9 4.55615 1.294 4.90015 1.9" stroke="#F8D3D3" stroke-width="1.8" stroke-linecap="round" stroke-linejoin="round"/>
</svg>
